<svg xmlns="http://www.w3.org/2000/svg" viewBox="5 14 102 86" fill="none">
  <path d="M89.6992 93.695C94.3659 97.195 101.366 94.8617 94.9492 88.445C75.6992 69.7783 79.7825 18.445 55.8659 18.445C31.9492 18.445 36.0325 69.7783 16.7825 88.445C9.78251 95.445 17.3658 97.195 22.0325 93.695C40.1159 81.445 38.9492 59.8617 55.8659 59.8617C72.7825 59.8617 71.6159 81.445 89.6992 93.695Z" fill="#3186FF"/>
  <mask id="m0" maskUnits="userSpaceOnUse" x="13" y="18" width="85" height="78" style="mask-type:alpha">
    <path d="M89.6992 93.695C94.3659 97.195 101.366 94.8617 94.9492 88.445C75.6992 69.7783 79.7825 18.445 55.8659 18.445C31.9492 18.445 36.0325 69.7783 16.7825 88.445C9.78251 95.445 17.3658 97.195 22.0325 93.695C40.1159 81.445 38.9492 59.8617 55.8659 59.8617C72.7825 59.8617 71.6159 81.445 89.6992 93.695Z" fill="black"/>
  </mask>
  <g mask="url(#m0)">
    <g filter="url(#f0)"><ellipse cx="22.79" cy="26.81" rx="22.79" ry="26.81" transform="matrix(-.113 .994 -.994 -.113 66.25 -15.53)" fill="#FFE432"/></g>
    <g filter="url(#f1)"><ellipse cx="96.49" cy="35.12" rx="29.5" ry="30.15" transform="rotate(76.92 96.49 35.12)" fill="#FC413D"/></g>
    <g filter="url(#f2)"><ellipse cx="9.03" cy="41.66" rx="30.83" ry="39.94" transform="rotate(74.13 9.03 41.66)" fill="#00B95C"/></g>
    <g filter="url(#f4)"><ellipse cx="11.22" cy="42.89" rx="30.22" ry="33.27" transform="rotate(45.61 11.22 42.89)" fill="#00B95C"/></g>
    <g filter="url(#f5)"><ellipse cx="75.75" cy="104.82" rx="29.02" ry="27.94" transform="rotate(76.92 75.75 104.82)" fill="#3186FF"/></g>
    <g filter="url(#f6)"><ellipse cx="33.57" cy="35.4" rx="33.57" ry="35.4" transform="matrix(-.41 .912 -.912 -.41 101.25 -15.17)" fill="#FBBC04"/></g>
    <g filter="url(#f7)"><path d="M2.57 149.7C-15.81 142.48 15.6 83.12 23.41 63.22C31.22 43.32 52.45 33.04 70.83 40.26C89.21 47.48 111 87.22 103.19 107.11C95.37 127.01 20.95 156.91 2.57 149.7Z" fill="#3186FF"/></g>
    <g filter="url(#f8)"><path d="M113.93 75.81C109.01 81.55 96.17 78.62 85.25 69.27C74.33 59.91 69.47 47.67 74.39 41.93C79.31 36.19 92.15 39.11 103.07 48.47C113.99 57.82 118.85 70.06 113.93 75.81Z" fill="#749BFF"/></g>
    <g filter="url(#f9)"><ellipse cx="92.61" cy="23.8" rx="44.24" ry="27.5" transform="rotate(34.08 92.61 23.8)" fill="#FC413D"/></g>
    <g filter="url(#f10)"><ellipse cx="23.49" cy="29.59" rx="23.71" ry="13.79" transform="rotate(112.52 23.49 29.59)" fill="#FFEE48"/></g>
  </g>
  <defs>
    <filter id="f0" x="2.49" y="-26.54" width="69.09" height="61.25" filterUnits="userSpaceOnUse" color-interpolation-filters="sRGB"><feFlood flood-opacity="0" result="bg"/><feBlend in="SourceGraphic" in2="bg" result="s"/><feGaussianBlur stdDeviation="3.89" result="r"/></filter>
    <filter id="f1" x="28.75" y="-32.03" width="135.48" height="134.31" filterUnits="userSpaceOnUse" color-interpolation-filters="sRGB"><feFlood flood-opacity="0" result="bg"/><feBlend in="SourceGraphic" in2="bg" result="s"/><feGaussianBlur stdDeviation="18.81" result="r"/></filter>
    <filter id="f2" x="-62.29" y="-21.93" width="142.64" height="127.18" filterUnits="userSpaceOnUse" color-interpolation-filters="sRGB"><feFlood flood-opacity="0" result="bg"/><feBlend in="SourceGraphic" in2="bg" result="s"/><feGaussianBlur stdDeviation="15.99" result="r"/></filter>
    <filter id="f4" x="-52.57" y="-20.83" width="127.58" height="127.45" filterUnits="userSpaceOnUse" color-interpolation-filters="sRGB"><feFlood flood-opacity="0" result="bg"/><feBlend in="SourceGraphic" in2="bg" result="s"/><feGaussianBlur stdDeviation="15.99" result="r"/></filter>
    <filter id="f5" x="17.36" y="45.46" width="116.79" height="118.72" filterUnits="userSpaceOnUse" color-interpolation-filters="sRGB"><feFlood flood-opacity="0" result="bg"/><feBlend in="SourceGraphic" in2="bg" result="s"/><feGaussianBlur stdDeviation="15.19" result="r"/></filter>
    <filter id="f6" x="-7.45" y="-60.47" width="125.3" height="122.86" filterUnits="userSpaceOnUse" color-interpolation-filters="sRGB"><feFlood flood-opacity="0" result="bg"/><feBlend in="SourceGraphic" in2="bg" result="s"/><feGaussianBlur stdDeviation="13.77" result="r"/></filter>
    <filter id="f7" x="-27.71" y="13.36" width="157.12" height="162.03" filterUnits="userSpaceOnUse" color-interpolation-filters="sRGB"><feFlood flood-opacity="0" result="bg"/><feBlend in="SourceGraphic" in2="bg" result="s"/><feGaussianBlur stdDeviation="12.3" result="r"/></filter>
    <filter id="f8" x="50.46" y="16.98" width="87.4" height="83.77" filterUnits="userSpaceOnUse" color-interpolation-filters="sRGB"><feFlood flood-opacity="0" result="bg"/><feBlend in="SourceGraphic" in2="bg" result="s"/><feGaussianBlur stdDeviation="11" result="r"/></filter>
    <filter id="f9" x="34.26" y="-28.46" width="116.7" height="104.51" filterUnits="userSpaceOnUse" color-interpolation-filters="sRGB"><feFlood flood-opacity="0" result="bg"/><feBlend in="SourceGraphic" in2="bg" result="s"/><feGaussianBlur stdDeviation="9.29" result="r"/></filter>
    <filter id="f10" x="-15.15" y="-15.95" width="77.29" height="91.08" filterUnits="userSpaceOnUse" color-interpolation-filters="sRGB"><feFlood flood-opacity="0" result="bg"/><feBlend in="SourceGraphic" in2="bg" result="s"/><feGaussianBlur stdDeviation="11.5" result="r"/></filter>
  </defs>
</svg>
